<?xml version="1.0" standalone="no"?>
<!DOCTYPE svg PUBLIC "-//W3C//DTD SVG 20010904//EN"
 "http://www.w3.org/TR/2001/REC-SVG-20010904/DTD/svg10.dtd">
<svg version="1.0" xmlns="http://www.w3.org/2000/svg"
 width="600.000000pt" height="600.000000pt" viewBox="0 0 600.000000 600.000000"
 preserveAspectRatio="xMidYMid meet">
<g transform="translate(0.000000,600.000000) scale(0.100000,-0.100000)"
fill="#E65100" stroke="none">
<path d="M2953 5815 c-32 -22 -104 -127 -146 -210 -191 -382 -142 -1053 96
-1320 97 -110 174 -108 118 3 -10 20 -30 73 -44 117 -150 458 -126 974 58
1248 27 40 45 79 45 95 0 56 -82 99 -127 67z"/>
<path d="M2474 5212 c-42 -27 -53 -152 -54 -582 -1 -347 -4 -400 -47 -753 -26
-214 -26 -228 -10 -244 25 -26 41 -5 75 102 111 340 140 560 144 1099 l2 348
-23 19 c-24 19 -67 25 -87 11z"/>
<path d="M3172 5100 c-83 -89 -107 -519 -47 -850 49 -274 146 -507 201 -486
21 8 16 68 -19 221 -85 365 -94 821 -22 1026 16 45 13 69 -11 94 -22 22 -80
19 -102 -5z"/>
<path d="M2201 4373 c-51 -42 -77 -286 -91 -873 -14 -587 -31 -879 -65 -1126
-16 -114 -45 -248 -52 -241 -15 16 -34 136 -47 297 -16 197 -29 239 -62 196
-19 -27 -12 -400 10 -498 45 -200 145 -210 216 -20 90 238 139 694 160 1492 6
212 15 435 20 495 5 61 13 142 16 181 6 69 6 71 -21 92 -34 27 -56 28 -84 5z"/>
<path d="M3521 4274 c-63 -45 -96 -274 -70 -489 22 -178 97 -420 171 -550 35
-60 54 -73 77 -51 13 14 11 29 -22 143 -93 327 -122 647 -73 823 22 77 20 106
-6 124 -29 20 -48 20 -77 0z"/>
<path d="M2780 4097 c-92 -26 -178 -102 -228 -203 -48 -98 -1 -115 70 -25 137
172 286 182 452 30 76 -69 122 -59 81 17 -68 127 -252 216 -375 181z"/>
<path d="M2827 3780 c-184 -58 -445 -314 -450 -442 -3 -51 34 -51 66 -1 99
156 271 292 426 337 74 22 116 20 182 -7 143 -59 185 -120 375 -541 32 -71
117 -233 189 -360 129 -227 219 -403 231 -452 19 -75 134 -68 134 8 0 74 -87
267 -251 555 -62 109 -160 292 -217 408 -146 292 -210 381 -333 458 -91 56
-243 72 -352 37z"/>
<path d="M1810 3582 c-37 -37 -56 -145 -75 -427 -27 -383 -107 -845 -146 -845
-13 0 -21 104 -17 231 3 111 1 124 -14 127 -58 12 -89 -331 -40 -442 40 -88
116 -81 172 17 94 162 167 527 189 942 6 99 16 224 23 278 14 109 9 126 -37
138 -22 7 -33 3 -55 -19z"/>
<path d="M3921 3541 c-64 -64 -26 -343 80 -583 72 -163 273 -468 310 -468 55
0 44 38 -77 276 -142 277 -195 450 -198 635 -1 100 -4 120 -20 138 -24 26 -70
27 -95 2z"/>
<path d="M2810 3464 c-220 -110 -411 -433 -398 -673 3 -52 5 -56 28 -56 22 0
26 7 47 87 59 232 167 399 326 505 161 107 204 71 398 -331 44 -93 124 -246
176 -340 53 -94 115 -205 139 -247 115 -206 176 -352 204 -488 21 -104 33
-121 86 -121 68 0 89 65 58 184 -42 165 -112 314 -302 638 -67 114 -173 305
-235 425 -129 248 -153 288 -213 360 -87 102 -187 120 -314 57z"/>
<path d="M2893 3105 c-99 -43 -237 -239 -291 -416 -44 -143 -38 -284 22 -521
31 -121 56 -192 186 -532 189 -494 268 -983 207 -1281 -30 -143 -13 -192 70
-210 113 -23 158 117 158 485 -1 352 -96 749 -275 1150 -277 620 -291 794 -89
1092 90 133 96 128 244 -217 43 -99 125 -272 184 -385 114 -219 168 -331 204
-425 25 -66 47 -86 75 -69 52 34 -14 235 -223 684 -42 91 -97 215 -122 275
-140 342 -220 427 -350 370z"/>
<path d="M4292 3044 c-31 -21 -29 -80 7 -185 136 -397 224 -562 300 -562 61 0
83 39 110 199 22 129 42 198 68 226 23 26 28 23 42 -24 44 -149 119 -204 307
-227 257 -30 404 -35 426 -14 24 24 18 56 -15 78 -12 8 -116 28 -230 44 -311
46 -321 50 -352 150 -43 145 -158 193 -253 106 -63 -56 -95 -144 -118 -320
l-7 -50 -23 51 c-33 74 -154 445 -154 472 0 53 -65 87 -108 56z"/>
<path d="M1468 2999 c-27 -15 -83 -123 -158 -303 -79 -190 -117 -266 -129
-266 -14 0 -28 52 -50 183 -24 147 -59 223 -112 250 -76 37 -148 -12 -193
-130 -46 -120 -100 -153 -266 -160 -134 -5 -150 -9 -150 -32 0 -28 19 -38 97
-50 257 -39 381 19 454 214 16 42 23 21 48 -130 32 -191 85 -275 173 -275 79
0 127 59 218 266 34 76 89 194 121 261 51 102 59 125 50 142 -20 37 -67 51
-103 30z"/>
<path d="M3837 2943 c-13 -13 -6 -31 45 -119 134 -233 258 -527 258 -614 0
-83 117 -112 134 -33 21 96 -131 423 -304 652 -89 117 -111 136 -133 114z"/>
<path d="M2292 2743 c-6 -10 -16 -52 -23 -93 -24 -134 -13 -1273 13 -1342 17
-47 84 -55 117 -14 21 25 9 402 -23 676 -31 274 -47 508 -45 657 1 128 -12
168 -39 116z"/>
<path d="M2904 2635 c-4 -9 -4 -55 -1 -103 9 -147 71 -312 204 -537 153 -260
233 -465 233 -596 0 -70 53 -115 115 -98 58 16 70 78 40 219 -37 177 -97 305
-257 550 -114 176 -153 246 -202 370 -21 52 -48 120 -60 150 -23 58 -59 80
-72 45z"/>
<path d="M2412 2518 c-8 -8 -12 -55 -12 -144 0 -164 27 -329 104 -640 95 -380
128 -577 142 -844 8 -158 20 -182 93 -184 36 -1 47 4 68 29 l26 29 -6 151
c-10 262 -59 485 -202 925 -96 295 -140 463 -154 589 -10 92 -28 120 -59 89z"/>
</g>
</svg>
