<svg width="28" height="27" viewBox="0 0 28 27" fill="none" xmlns="http://www.w3.org/2000/svg">
<g clip-path="url(#clip0_3_250)">
<path d="M13.8084 0.0517921C13.6346 0.156308 13.2437 0.655133 13.0156 1.04944C11.9785 2.86422 12.2446 6.05195 13.5369 7.32039C14.0636 7.84297 14.4817 7.83347 14.1776 7.30614C14.1233 7.21112 14.0147 6.95934 13.9387 6.7503C13.1242 4.57448 13.2545 2.12311 14.2536 0.821408C14.4002 0.63138 14.498 0.446102 14.498 0.37009C14.498 0.10405 14.0527 -0.100231 13.8084 0.0517921Z" fill="white"/>
<path d="M11.2072 2.91656C10.9792 3.04483 10.9195 3.63867 10.914 5.68148C10.9086 7.32997 10.8923 7.58176 10.6588 9.25877C10.5176 10.2754 10.5176 10.3419 10.6045 10.4179C10.7403 10.5415 10.8271 10.4417 11.0118 9.93337C11.6145 8.31812 11.7719 7.27297 11.7937 4.71233L11.8045 3.05908L11.6796 2.96882C11.5493 2.87855 11.3158 2.85005 11.2072 2.91656Z" fill="white"/>
<path d="M14.9975 3.44854C14.5468 3.87135 14.4165 5.91416 14.7423 7.48665C15.0084 8.78835 15.5351 9.89526 15.8337 9.7955C15.9477 9.75749 15.9206 9.47245 15.7305 8.74559C15.269 7.01158 15.2201 4.84525 15.6111 3.87135C15.698 3.65757 15.6817 3.54355 15.5514 3.42478C15.4319 3.32027 15.117 3.33452 14.9975 3.44854Z" fill="white"/>
<path d="M9.72499 6.90235C9.44806 7.10188 9.30689 8.26105 9.23087 11.0497C9.15485 13.8384 9.06254 15.2256 8.87792 16.399C8.79104 16.9406 8.63358 17.5772 8.59557 17.544C8.51412 17.4679 8.41095 16.8979 8.34036 16.133C8.25348 15.1971 8.18289 14.9976 8.00371 15.2019C7.90054 15.3301 7.93855 17.1021 8.05801 17.5677C8.30235 18.5179 8.84534 18.5654 9.23087 17.6627C9.71956 16.5321 9.98562 14.3657 10.0997 10.5747C10.1322 9.5675 10.1811 8.50809 10.2083 8.22305C10.2354 7.93325 10.2788 7.54844 10.2951 7.36317C10.3277 7.03537 10.3277 7.02586 10.1811 6.9261C9.99648 6.79783 9.87703 6.79308 9.72499 6.90235Z" fill="white"/>
<path d="M16.8925 7.37272C16.5504 7.5865 16.3712 8.67441 16.5124 9.69582C16.6318 10.5414 17.0391 11.6911 17.4409 12.3087C17.6309 12.5938 17.7341 12.6555 17.859 12.551C17.9296 12.4845 17.9187 12.4132 17.7395 11.8716C17.2345 10.3182 17.0771 8.79793 17.3431 7.96181C17.4626 7.596 17.4517 7.45823 17.3106 7.37272C17.1531 7.2777 17.0499 7.2777 16.8925 7.37272Z" fill="white"/>
<path d="M12.869 8.2138C12.3694 8.33732 11.9025 8.69837 11.631 9.17819C11.3703 9.64376 11.6256 9.72453 12.0111 9.29696C12.755 8.47984 13.564 8.43233 14.4654 9.15444C14.8781 9.48224 15.1278 9.43473 14.9052 9.07368C14.536 8.47034 13.5369 8.04752 12.869 8.2138Z" fill="white"/>
<path d="M13.1241 9.71984C12.125 9.99538 10.7078 11.2116 10.6806 11.8197C10.6643 12.0619 10.8652 12.0619 11.039 11.8244C11.5766 11.0833 12.5105 10.4372 13.3521 10.2234C13.7539 10.1189 13.982 10.1284 14.3404 10.2567C15.1169 10.537 15.3449 10.8268 16.3766 12.8268C16.5503 13.1641 17.0119 13.9337 17.4028 14.5371C18.1033 15.6155 18.592 16.4516 18.6572 16.6844C18.7603 17.0407 19.3848 17.0074 19.3848 16.6464C19.3848 16.2948 18.9124 15.3779 18.0219 14.0097C17.6852 13.4919 17.1531 12.6225 16.8436 12.0714C16.0508 10.6842 15.7033 10.2614 15.0354 9.89561C14.5413 9.62957 13.7159 9.55356 13.1241 9.71984Z" fill="white"/>
<path d="M7.60165 10.6602C7.40075 10.836 7.29758 11.3491 7.19441 12.6888C7.0478 14.5083 6.61341 16.7031 6.40164 16.7031C6.33105 16.7031 6.28761 16.209 6.30933 15.6057C6.32562 15.0784 6.31476 15.0166 6.23331 15.0024C5.91838 14.9453 5.75005 16.5748 6.01612 17.1022C6.23331 17.5202 6.64599 17.487 6.95006 17.0214C7.46047 16.2518 7.85686 14.5178 7.97632 12.5462C8.0089 12.0759 8.06319 11.4821 8.1012 11.2255C8.17722 10.7077 8.15007 10.6269 7.9003 10.5699C7.78084 10.5367 7.72111 10.5557 7.60165 10.6602Z" fill="white"/>
<path d="M19.0645 10.8551C18.717 11.1592 18.9233 12.4846 19.4989 13.6248C19.8899 14.3992 20.9813 15.8481 21.1822 15.8481C21.4808 15.8481 21.4211 15.6676 20.7641 14.5369C19.993 13.221 19.7052 12.3991 19.689 11.5202C19.6835 11.0452 19.6672 10.9502 19.5804 10.8646C19.45 10.7411 19.2003 10.7364 19.0645 10.8551Z" fill="white"/>
<path d="M13.0319 11.2208C11.8374 11.7434 10.8002 13.2778 10.8708 14.418C10.8871 14.6651 10.898 14.6841 11.0229 14.6841C11.1423 14.6841 11.1641 14.6508 11.2781 14.2707C11.5984 13.1686 12.1849 12.3752 13.0482 11.8716C13.9224 11.3633 14.1559 11.5343 15.2093 13.4441C15.4482 13.8859 15.8826 14.6128 16.165 15.0594C16.4528 15.5059 16.7894 16.0333 16.9198 16.2328C17.5442 17.2114 17.8754 17.905 18.0275 18.5511C18.1415 19.0452 18.2066 19.126 18.4944 19.126C18.8637 19.126 18.9777 18.8172 18.8094 18.2518C18.5813 17.468 18.2012 16.7601 17.1695 15.2209C16.8057 14.6793 16.2302 13.7719 15.8935 13.2018C15.193 12.0237 15.0627 11.8336 14.7369 11.4916C14.2645 11.007 13.7215 10.9215 13.0319 11.2208Z" fill="white"/>
<path d="M13.4826 12.9264C12.945 13.1307 12.1957 14.0618 11.9025 14.9027C11.6635 15.5821 11.6961 16.2519 12.0219 17.3778C12.1902 17.9527 12.326 18.29 13.0319 19.9052C14.0581 22.2521 14.4871 24.5752 14.1559 25.9909C13.993 26.6702 14.0853 26.903 14.536 26.9885C15.1495 27.0978 15.3939 26.4327 15.3939 24.6844C15.3885 23.0122 14.8726 21.1262 13.9007 19.2211C12.3966 16.2757 12.3206 15.449 13.4174 14.0333C13.9061 13.4015 13.9387 13.4252 14.7423 15.0642C14.9758 15.5346 15.421 16.3564 15.7414 16.8933C16.3604 17.9337 16.6536 18.4658 16.8491 18.9123C16.9849 19.2259 17.1043 19.3209 17.2564 19.2401C17.5387 19.0786 17.1803 18.1237 16.0455 15.9906C15.8174 15.5583 15.5188 14.9692 15.383 14.6842C14.6228 13.0594 14.1885 12.6556 13.4826 12.9264Z" fill="white"/>
<path d="M21.079 13.2164C20.9106 13.3161 20.9215 13.5964 21.117 14.0952C21.8555 15.9813 22.3333 16.7651 22.746 16.7651C23.0772 16.7651 23.1966 16.5799 23.3432 15.8197C23.4627 15.2069 23.5713 14.8791 23.7125 14.7461C23.8374 14.6226 23.8645 14.6368 23.9405 14.8601C24.1795 15.568 24.5867 15.8292 25.6075 15.9385C27.003 16.081 27.8012 16.1048 27.9207 16.005C28.051 15.891 28.0184 15.739 27.8392 15.6345C27.7741 15.5965 27.2093 15.5014 26.5903 15.4254C24.9016 15.2069 24.8473 15.1879 24.679 14.7128C24.4455 14.024 23.8211 13.7959 23.3052 14.2093C22.9632 14.4753 22.7894 14.8934 22.6645 15.7295L22.6265 15.967L22.5016 15.7247C22.3224 15.3732 21.6654 13.6107 21.6654 13.4824C21.6654 13.2306 21.3125 13.0691 21.079 13.2164Z" fill="white"/>
<path d="M5.74484 13.4302C5.59824 13.5015 5.29416 14.0146 4.88692 14.8697C4.45795 15.7723 4.25162 16.1334 4.18646 16.1334C4.11044 16.1334 4.03442 15.8863 3.91496 15.264C3.78465 14.5656 3.5946 14.2046 3.30681 14.0763C2.89414 13.9005 2.50319 14.1333 2.25884 14.6939C2.00907 15.264 1.71585 15.4208 0.814486 15.454C0.0868785 15.4778 0 15.4968 0 15.6061C0 15.7391 0.103168 15.7866 0.526701 15.8436C1.92219 16.0289 2.5955 15.7533 2.99188 14.8269C3.07876 14.6274 3.11677 14.7272 3.25252 15.4445C3.42627 16.3519 3.71406 16.751 4.19189 16.751C4.62085 16.751 4.88149 16.4707 5.37561 15.4873C5.56023 15.1262 5.85887 14.5656 6.03263 14.2473C6.30955 13.7628 6.35299 13.6535 6.30412 13.5727C6.19553 13.397 5.94032 13.3305 5.74484 13.4302Z" fill="white"/>
<path d="M18.6083 13.696C18.5377 13.7578 18.5757 13.8433 18.8526 14.2614C19.5802 15.3683 20.2535 16.765 20.2535 17.1783C20.2535 17.5726 20.8888 17.7104 20.9812 17.3351C21.0952 16.879 20.2698 15.3255 19.3305 14.2376C18.8472 13.6818 18.7277 13.5915 18.6083 13.696Z" fill="white"/>
<path d="M10.2191 14.646C10.1865 14.6935 10.1322 14.8931 10.0942 15.0878C9.96386 15.7244 10.0236 21.1355 10.1648 21.4633C10.2571 21.6866 10.6209 21.7246 10.8001 21.5298C10.9141 21.411 10.8489 19.62 10.6752 18.3183C10.5069 17.0166 10.42 15.905 10.4308 15.1971C10.4363 14.589 10.3657 14.399 10.2191 14.646Z" fill="white"/>
<path d="M13.5422 15.1591C13.5205 15.2019 13.5205 15.4204 13.5368 15.6484C13.5856 16.3468 13.9223 17.1307 14.6445 18.1996C15.4752 19.4348 15.9096 20.4087 15.9096 21.031C15.9096 21.3636 16.1974 21.5773 16.5341 21.4966C16.849 21.4206 16.9142 21.126 16.7513 20.4562C16.5504 19.6153 16.2246 19.0072 15.3558 17.8433C14.7368 17.0072 14.525 16.6746 14.2589 16.0855C14.1449 15.8385 13.9983 15.5154 13.9331 15.3729C13.8083 15.0974 13.6128 14.9928 13.5422 15.1591Z" fill="white"/>
<path d="M10.8708 15.7149C10.8274 15.7529 10.8057 15.9762 10.8057 16.399C10.8057 17.1781 10.9523 17.962 11.3704 19.4394C11.8862 21.2447 12.0654 22.1806 12.1414 23.449C12.1849 24.1997 12.25 24.3137 12.6464 24.3232C12.8419 24.3279 12.9016 24.3042 13.0156 24.1854L13.1568 24.0476L13.1242 23.3303C13.0699 22.0856 12.8039 21.0262 12.0274 18.9359C11.5061 17.5344 11.2672 16.7363 11.1912 16.1377C11.1369 15.7006 11.0392 15.5676 10.8708 15.7149Z" fill="white"/>
</g>
<defs>
<clipPath id="clip0_3_250">
<rect width="28" height="27" fill="white"/>
</clipPath>
</defs>
</svg>
