<svg viewBox="0 0 20 20" fill="none" xmlns="http://www.w3.org/2000/svg">
<rect width="20" height="20" rx="10" fill="url(#paint0_linear_143_575)"/>
<g clip-path="url(#clip0_143_575)">
<path d="M9.90419 5.01928C9.81731 5.05799 9.62184 5.24274 9.50781 5.38878C8.98925 6.06092 9.12228 7.24156 9.76844 7.71135C10.0318 7.9049 10.2408 7.90138 10.0888 7.70607C10.0617 7.67088 10.0074 7.57763 9.96935 7.50021C9.56211 6.69435 9.62727 5.78643 10.1268 5.30432C10.2001 5.23394 10.249 5.16532 10.249 5.13717C10.249 5.03863 10.0264 4.96297 9.90419 5.01928Z" fill="white"/>
<path d="M8.60362 6.08026C8.48959 6.12777 8.45973 6.34771 8.45701 7.1043C8.4543 7.71486 8.44615 7.80811 8.32941 8.42922C8.25882 8.80576 8.25882 8.8304 8.30226 8.85855C8.37013 8.9043 8.41357 8.86735 8.50588 8.67908C8.80724 8.08084 8.88598 7.69374 8.89684 6.74536L8.90227 6.13304L8.83982 6.09961C8.77466 6.06618 8.65792 6.05563 8.60362 6.08026Z" fill="white"/>
<path d="M10.4988 6.27733C10.2734 6.43392 10.2083 7.19052 10.3712 7.77292C10.5042 8.25503 10.7675 8.665 10.9169 8.62805C10.9739 8.61398 10.9603 8.5084 10.8653 8.2392C10.6345 7.59697 10.6101 6.79463 10.8055 6.43392C10.849 6.35475 10.8408 6.31252 10.7757 6.26853C10.716 6.22982 10.5585 6.2351 10.4988 6.27733Z" fill="white"/>
<path d="M7.8625 7.55648C7.72403 7.63038 7.65344 8.0597 7.61544 9.09255C7.57743 10.1254 7.53127 10.6392 7.43896 11.0738C7.39552 11.2744 7.31679 11.5101 7.29778 11.4978C7.25706 11.4697 7.20548 11.2585 7.17018 10.9752C7.12674 10.6286 7.09145 10.5547 7.00185 10.6304C6.95027 10.6779 6.96927 11.3342 7.029 11.5066C7.15118 11.8585 7.42267 11.8761 7.61544 11.5418C7.85978 11.123 7.99281 10.3207 8.04983 8.91659C8.06612 8.54357 8.09055 8.1512 8.10413 8.04563C8.1177 7.9383 8.13942 7.79578 8.14757 7.72715C8.16386 7.60575 8.16386 7.60223 8.09055 7.56528C7.99824 7.51777 7.93852 7.51601 7.8625 7.55648Z" fill="white"/>
<path d="M11.4462 7.73067C11.2752 7.80985 11.1856 8.21278 11.2562 8.59108C11.3159 8.90428 11.5195 9.33008 11.7204 9.55882C11.8155 9.66439 11.867 9.68727 11.9295 9.64856C11.9648 9.62392 11.9594 9.59753 11.8698 9.39695C11.6173 8.82158 11.5385 8.25853 11.6716 7.94886C11.7313 7.81337 11.7259 7.76235 11.6553 7.73067C11.5765 7.69548 11.525 7.69548 11.4462 7.73067Z" fill="white"/>
<path d="M9.4345 8.04211C9.18473 8.08786 8.95124 8.22158 8.81549 8.39929C8.68517 8.57173 8.81278 8.60164 9.00554 8.44328C9.37749 8.14064 9.78202 8.12305 10.2327 8.3905C10.439 8.5119 10.5639 8.49431 10.4526 8.36058C10.268 8.13713 9.76844 7.98053 9.4345 8.04211Z" fill="white"/>
<path d="M9.56204 8.59985C9.06249 8.7019 8.35388 9.15234 8.34031 9.37756C8.33216 9.4673 8.43262 9.4673 8.5195 9.37932C8.78828 9.10483 9.25525 8.86554 9.67607 8.78636C9.87698 8.74765 9.99101 8.75117 10.1702 8.79868C10.5584 8.90249 10.6725 9.00982 11.1883 9.75058C11.2752 9.87551 11.506 10.1606 11.7014 10.384C12.0517 10.7834 12.296 11.0931 12.3286 11.1793C12.3802 11.3113 12.6924 11.299 12.6924 11.1652C12.6924 11.035 12.4562 10.6954 12.0109 10.1887C11.8426 9.99691 11.5765 9.67492 11.4218 9.47082C11.0254 8.95703 10.8516 8.80044 10.5177 8.66495C10.2706 8.56642 9.85797 8.53827 9.56204 8.59985Z" fill="white"/>
<path d="M6.80083 8.94825C6.70037 9.01335 6.64879 9.20338 6.59721 9.69956C6.5239 10.3735 6.30671 11.1864 6.20082 11.1864C6.16553 11.1864 6.14381 11.0034 6.15467 10.7799C6.16281 10.5846 6.15738 10.5617 6.11666 10.5565C5.95919 10.5353 5.87503 11.1389 6.00806 11.3342C6.11666 11.489 6.323 11.4767 6.47503 11.3043C6.73024 11.0192 6.92843 10.377 6.98816 9.64678C7.00445 9.47258 7.0316 9.25264 7.0506 9.15763C7.08861 8.96584 7.07504 8.93593 6.95015 8.91482C6.89042 8.9025 6.86056 8.90954 6.80083 8.94825Z" fill="white"/>
<path d="M12.5323 9.02043C12.3585 9.13304 12.4617 9.62395 12.7495 10.0462C12.9449 10.333 13.4906 10.8697 13.5911 10.8697C13.7404 10.8697 13.7105 10.8028 13.382 10.3841C12.9965 9.89667 12.8526 9.59227 12.8445 9.26676C12.8418 9.09081 12.8336 9.05562 12.7902 9.02395C12.725 8.9782 12.6001 8.97644 12.5323 9.02043Z" fill="white"/>
<path d="M9.51597 9.15589C8.91868 9.34944 8.40012 9.91776 8.43542 10.3401C8.44356 10.4315 8.44899 10.4386 8.51144 10.4386C8.57117 10.4386 8.58203 10.4263 8.63904 10.2855C8.79922 9.8773 9.09244 9.58345 9.52412 9.39695C9.96123 9.20868 10.078 9.27202 10.6047 9.97935C10.7241 10.143 10.9413 10.4122 11.0825 10.5776C11.2264 10.743 11.3947 10.9383 11.4599 11.0122C11.7721 11.3747 11.9377 11.6315 12.0137 11.8708C12.0708 12.0538 12.1033 12.0837 12.2472 12.0837C12.4318 12.0837 12.4889 11.9694 12.4047 11.76C12.2907 11.4697 12.1006 11.2075 11.5848 10.6374C11.4029 10.4368 11.1151 10.1008 10.9468 9.88961C10.5965 9.45325 10.5314 9.38287 10.3685 9.25618C10.1323 9.07671 9.86077 9.04504 9.51597 9.15589Z" fill="white"/>
<path d="M9.74129 9.78756C9.4725 9.86322 9.09784 10.2081 8.95123 10.5195C8.83177 10.7711 8.84806 11.0192 9.01096 11.4362C9.09512 11.6491 9.163 11.7741 9.51594 12.3723C10.0291 13.2415 10.2436 14.1019 10.0779 14.6263C9.99649 14.8779 10.0426 14.9641 10.268 14.9958C10.5748 15.0362 10.697 14.7899 10.697 14.1424C10.6942 13.523 10.4363 12.8245 9.95034 12.1189C9.19829 11.028 9.16028 10.7219 9.70871 10.1975C9.95305 9.96351 9.96934 9.97231 10.3712 10.5793C10.4879 10.7535 10.7105 11.0579 10.8707 11.2568C11.1802 11.6421 11.3268 11.8392 11.4246 12.0046C11.4924 12.1207 11.5522 12.1559 11.6282 12.126C11.7694 12.0661 11.5902 11.7125 11.0227 10.9225C10.9087 10.7623 10.7594 10.5442 10.6915 10.4386C10.3114 9.83683 10.0942 9.68727 9.74129 9.78756Z" fill="white"/>
<path d="M13.5395 9.89492C13.4553 9.93187 13.4608 10.0357 13.5585 10.2204C13.9277 10.919 14.1666 11.2093 14.373 11.2093C14.5386 11.2093 14.5983 11.1407 14.6716 10.8591C14.7314 10.6322 14.7857 10.5108 14.8562 10.4615C14.9187 10.4157 14.9323 10.421 14.9703 10.5037C15.0897 10.7659 15.2934 10.8627 15.8038 10.9031C16.5015 10.9559 16.9006 10.9647 16.9603 10.9278C17.0255 10.8855 17.0092 10.8292 16.9196 10.7905C16.887 10.7764 16.6047 10.7413 16.2952 10.7131C15.4508 10.6322 15.4237 10.6251 15.3395 10.4492C15.2228 10.194 14.9105 10.1096 14.6526 10.2627C14.4816 10.3612 14.3947 10.516 14.3323 10.8257L14.3133 10.9137L14.2508 10.824C14.1612 10.6937 13.8327 10.041 13.8327 9.99346C13.8327 9.9002 13.6562 9.84038 13.5395 9.89492Z" fill="white"/>
<path d="M5.87243 9.97407C5.79913 10.0005 5.64709 10.1905 5.44347 10.5072C5.22898 10.8415 5.12581 10.9752 5.09324 10.9752C5.05523 10.9752 5.01722 10.8837 4.95749 10.6532C4.89233 10.3946 4.7973 10.2609 4.65341 10.2134C4.44707 10.1483 4.2516 10.2345 4.12942 10.4421C4.00454 10.6532 3.85793 10.7113 3.40724 10.7236C3.04344 10.7324 3 10.7395 3 10.7799C3 10.8292 3.05158 10.8468 3.26335 10.8679C3.9611 10.9365 4.29775 10.8345 4.49594 10.4914C4.53938 10.4175 4.55839 10.4544 4.62626 10.7201C4.71314 11.0562 4.85703 11.204 5.09595 11.204C5.31043 11.204 5.44075 11.1002 5.68781 10.7359C5.78012 10.6022 5.92944 10.3946 6.01632 10.2767C6.15479 10.0972 6.1765 10.0568 6.15207 10.0269C6.09777 9.96175 5.97017 9.93712 5.87243 9.97407Z" fill="white"/>
<path d="M12.3041 10.0726C12.2688 10.0955 12.2879 10.1271 12.4263 10.282C12.7901 10.6919 13.1268 11.2092 13.1268 11.3623C13.1268 11.5084 13.4444 11.5594 13.4906 11.4204C13.5476 11.2515 13.1349 10.6761 12.6652 10.2732C12.4236 10.0673 12.3639 10.0339 12.3041 10.0726Z" fill="white"/>
<path d="M8.10953 10.4245C8.09324 10.4421 8.06609 10.516 8.04709 10.5881C7.98193 10.8239 8.01179 12.828 8.08238 12.9494C8.12854 13.0321 8.31044 13.0462 8.40003 12.974C8.45705 12.9301 8.42447 12.2667 8.33759 11.7846C8.25343 11.3025 8.20999 10.8908 8.21542 10.6286C8.21813 10.4034 8.18284 10.333 8.10953 10.4245Z" fill="white"/>
<path d="M9.77109 10.6145C9.76023 10.6304 9.76023 10.7113 9.76838 10.7958C9.79281 11.0544 9.96114 11.3447 10.3222 11.7406C10.7376 12.1981 10.9548 12.5588 10.9548 12.7893C10.9548 12.9125 11.0987 12.9917 11.267 12.9617C11.4245 12.9336 11.4571 12.8245 11.3756 12.5764C11.2752 12.265 11.1123 12.0398 10.6779 11.6087C10.3684 11.299 10.2625 11.1758 10.1295 10.9576C10.0725 10.8662 9.99915 10.7465 9.96657 10.6937C9.90413 10.5917 9.80639 10.553 9.77109 10.6145Z" fill="white"/>
<path d="M8.43541 10.8204C8.41369 10.8345 8.40283 10.9172 8.40283 11.0738C8.40283 11.3623 8.47614 11.6526 8.68519 12.1999C8.94311 12.8685 9.0327 13.2151 9.07071 13.6849C9.09243 13.9629 9.12501 14.0051 9.3232 14.0086C9.42094 14.0104 9.45081 14.0016 9.50782 13.9576L9.57841 13.9066L9.56212 13.6409C9.53497 13.1799 9.40194 12.7875 9.0137 12.0133C8.75306 11.4943 8.6336 11.1987 8.59559 10.977C8.56844 10.8151 8.51958 10.7658 8.43541 10.8204Z" fill="white"/>
</g>
<defs>
<linearGradient id="paint0_linear_143_575" x1="10" y1="0" x2="10" y2="20" gradientUnits="userSpaceOnUse">
<stop stop-color="#EA5E07"/>
<stop offset="0.69" stop-color="#E58021"/>
<stop offset="1" stop-color="#E1A33C"/>
</linearGradient>
<clipPath id="clip0_143_575">
<rect width="14" height="10" fill="white" transform="translate(3 5)"/>
</clipPath>
</defs>
</svg>
